<svg id="Layer_1" enable-background="new 0 0 512 512" viewBox="0 0 512 512" xmlns="http://www.w3.org/2000/svg"><g clip-rule="evenodd" fill-rule="evenodd"><g><path d="m161.658 465.264h188.684l-49.998-101.686h-88.688z" fill="#006edb"/><path d="m343.619 465.264h6.724l-49.998-101.686-83.212-.001c34.063 42.475 77.201 77.353 126.487 101.686z" fill="#0e82f5"/><path d="m129.751 451.156h252.499c9.218 0 16.694 7.475 16.694 16.694v.001c0 9.218-7.476 16.694-16.694 16.694h-252.499c-9.218 0-16.694-7.476-16.694-16.694 0-9.22 7.476-16.695 16.694-16.695z" fill="#2891fa"/><path d="m317.682 451.156h64.567c9.182 0 16.695 7.512 16.695 16.694 0 7.273-4.713 13.497-11.236 15.771-24.6-8.429-48.04-19.352-70.025-32.466z" fill="#43a2ff"/><path d="m31.495 27.455h449.009c12.692 0 22.996 10.304 22.996 22.996v310.129c0 12.691-10.304 22.995-22.995 22.995h-449.01c-12.692 0-22.995-10.304-22.995-22.995v-310.129c0-12.691 10.304-22.995 22.995-22.995z" fill="#2891fa"/><path d="m149.357 27.455h331.147c12.648 0 22.996 10.347 22.996 22.995v310.13c0 12.648-10.347 22.996-22.996 22.996h-246.152c-61.587-66.628-99.237-155.707-99.237-253.593 0-35.554 4.967-69.948 14.242-102.528z" fill="#43a2ff"/><path d="m38.806 57.761h434.388v295.508h-434.388z" fill="#9ae7fd"/><path d="m142.115 57.762h331.079v295.507h-264.065c-46.489-62.298-74.014-139.577-74.014-223.286 0-24.71 2.423-48.851 6.999-72.221z" fill="#c9f0ff"/></g><g><path d="m202.752 249.577h40.389c1.102 0 2 .898 2 2v77.321c0 1.102-.898 2-2 2h-40.389c-1.102 0-2-.898-2-2v-77.321c0-1.102.898-2 2-2z" fill="#eb4e5c"/><path d="m216.045 249.577h27.096c1.102 0 2 .898 2 2v25.348c-10.992-7.645-20.802-16.867-29.096-27.348z" fill="#ff6372"/><path d="m309.551 183.353c-13.463 0-26.926 0-40.389 0-1.102 0-2 .898-2 2v143.546c0 1.102.898 2 2 2h40.389c1.102 0 2-.898 2-2 0-47.849 0-95.698 0-143.546 0-1.102-.898-2-2-2z" fill="#ffc328"/><path d="m309.551 183.353c-13.463 0-26.926 0-40.389 0-1.102 0-2 .898-2 2v104.023c13.74 6.149 28.687 10.078 44.388 11.34v-115.363c.001-1.102-.897-2-1.999-2z" fill="#ffd54f"/><path d="m375.962 216.465c-13.463 0-26.926 0-40.389 0-1.102 0-2 .898-2 2v110.434c0 1.102.898 2 2 2h40.389c1.102 0 2-.898 2-2 0-36.811 0-73.623 0-110.434-.001-1.102-.899-2-2-2z" fill="#58d561"/><path d="m375.961 216.465c-13.463 0-26.926 0-40.389 0-1.102 0-2 .898-2 2v82.251c15.702-1.261 30.649-5.192 44.388-11.34v-70.911c.001-1.102-.897-2-1.999-2z" fill="#6ce75a"/><path d="m442.372 330.898h-40.389c-1.102 0-2-.898-2-2v-176.658c0-1.101.898-2 2-2h40.389c1.102 0 2 .898 2 2v176.658c0 1.102-.898 2-2 2z" fill="#2891fa"/><path d="m399.983 276.925v-124.685c0-1.101.898-2 2-2h40.389c1.102 0 2 .898 2 2v73.157c-10.224 20.711-25.569 38.44-44.389 51.528z" fill="#43a2ff"/><path d="m391.409 103.402c-2.804 0-5.077-2.273-5.077-5.077 0-2.803 2.273-5.077 5.077-5.077h33.112c2.804 0 5.077 2.273 5.077 5.077v33.112c0 2.804-2.273 5.077-5.077 5.077s-5.077-2.273-5.077-5.077v-20.899l-59.86 59.705c-1.481 1.694-3.97 2.25-6.079 1.2l-63.16-31.491-63.831 63.652c-1.982 1.971-5.188 1.962-7.159-.02s-1.962-5.188.02-7.159l66.41-66.225c1.58-1.571 3.937-1.884 5.826-.944l.004-.008 63.16 31.491 57.486-57.338h-20.852z" fill="#7a7785"/></g><g><circle cx="140.224" cy="154.012" fill="#43a2ff" r="63.825"/><ellipse cx="140.223" cy="154.012" fill="#2891fa" rx="37.002" ry="37.002" transform="matrix(.055 -.999 .999 .055 -21.308 285.504)"/><path d="m140.223 90.188c-35.25 0-63.825 28.575-63.825 63.825l63.825-.001z" fill="#6ce75a"/><path d="m103.221 154.012h37.002v-37.002c-20.435 0-37.002 16.567-37.002 37.002z" fill="#58d561"/><path d="m140.223 90.188v63.825h63.825c.001-35.25-28.575-63.825-63.825-63.825z" fill="#ffd54f"/><path d="m140.223 117.01v37.002h37.002c0-20.435-16.566-37.002-37.002-37.002z" fill="#ffc328"/><path d="m204.049 154.012h-63.825l45.131 45.131c11.55-11.55 18.694-27.506 18.694-45.131z" fill="#ff6372"/><path d="m177.225 154.012h-37.002l26.165 26.165c6.696-6.696 10.837-15.947 10.837-26.165z" fill="#eb4e5c"/><path d="m140.224 182.308c15.585 0 28.297-12.711 28.297-28.296s-12.712-28.296-28.297-28.296-28.296 12.711-28.296 28.296 12.711 28.296 28.296 28.296z" fill="#e0dfe1"/><path d="m140.223 125.716c15.627 0 28.296 12.668 28.296 28.296 0 6.343-2.088 12.199-5.613 16.917-1.536.21-3.104.321-4.697.321-18.976 0-34.359-15.383-34.359-34.36 0-2.176.204-4.304.591-6.367 4.509-3.034 9.939-4.807 15.782-4.807z" fill="#f0f0f0"/></g><g><path d="m103.034 288.81c-4.142 0-7.5-3.358-7.5-7.5s3.358-7.5 7.5-7.5h59.982c4.142 0 7.5 3.358 7.5 7.5s-3.358 7.5-7.5 7.5zm-22.373-15c4.142 0 7.5 3.358 7.5 7.5s-3.358 7.5-7.5 7.5h-10.402c-4.142 0-7.5-3.358-7.5-7.5s3.358-7.5 7.5-7.5zm0-28.575c4.142 0 7.5 3.358 7.5 7.5s-3.358 7.5-7.5 7.5h-10.402c-4.142 0-7.5-3.358-7.5-7.5s3.358-7.5 7.5-7.5zm0 57.149c4.142 0 7.5 3.358 7.5 7.5s-3.358 7.5-7.5 7.5h-10.402c-4.142 0-7.5-3.358-7.5-7.5s3.358-7.5 7.5-7.5zm22.373-42.148c-4.142 0-7.5-3.358-7.5-7.5s3.358-7.5 7.5-7.5h59.982c4.142 0 7.5 3.358 7.5 7.5s-3.358 7.5-7.5 7.5zm0 57.148c-4.142 0-7.5-3.358-7.5-7.5s3.358-7.5 7.5-7.5h59.982c4.142 0 7.5 3.358 7.5 7.5s-3.358 7.5-7.5 7.5z" fill="#64dcfc"/><path d="m169.051 285.762c-1.807-3.933-3.547-7.902-5.22-11.908 3.758.407 6.684 3.59 6.684 7.456 0 1.667-.544 3.206-1.464 4.452zm-10.6-25.526c-1.842-4.951-3.578-9.953-5.214-15h9.777c4.142 0 7.5 3.358 7.5 7.5s-3.358 7.5-7.5 7.5z" fill="#9ae7fd"/><path d="m109.175 298.228c-4.142 0-7.5-3.358-7.5-7.5s3.358-7.5 7.5-7.5h59.982c4.142 0 7.5 3.358 7.5 7.5s-3.358 7.5-7.5 7.5zm-22.372-15c4.142 0 7.5 3.358 7.5 7.5s-3.358 7.5-7.5 7.5h-10.403c-4.142 0-7.5-3.358-7.5-7.5s3.358-7.5 7.5-7.5zm0-28.575c4.142 0 7.5 3.358 7.5 7.5s-3.358 7.5-7.5 7.5h-10.403c-4.142 0-7.5-3.358-7.5-7.5s3.358-7.5 7.5-7.5zm0 57.149c4.142 0 7.5 3.358 7.5 7.5s-3.358 7.5-7.5 7.5h-10.403c-4.142 0-7.5-3.358-7.5-7.5s3.358-7.5 7.5-7.5zm22.372-42.148c-4.142 0-7.5-3.358-7.5-7.5s3.358-7.5 7.5-7.5h59.982c4.142 0 7.5 3.358 7.5 7.5s-3.358 7.5-7.5 7.5zm0 57.148c-4.142 0-7.5-3.358-7.5-7.5s3.358-7.5 7.5-7.5h59.982c4.142 0 7.5 3.358 7.5 7.5s-3.358 7.5-7.5 7.5z" fill="#45467e"/></g></g></svg>