<svg height="512pt" viewBox="0 0 512 512.00001" width="512pt" xmlns="http://www.w3.org/2000/svg"><path d="m255.902344 463.289062c-114.351563 0-207.386719-93.03125-207.386719-207.386718 0-114.351563 93.035156-207.382813 207.386719-207.382813 114.351562 0 207.382812 93.03125 207.382812 207.382813 0 114.355468-93.03125 207.386718-207.382812 207.386718zm0-397.882812c-105.039063 0-190.496094 85.457031-190.496094 190.496094 0 105.039062 85.457031 190.496094 190.496094 190.496094 105.039062 0 190.496094-85.453126 190.496094-190.496094 0-105.039063-85.457032-190.496094-190.496094-190.496094zm0 0" fill="#ffd151"/><path d="m191.257812 95.628906c0 52.8125-42.816406 95.628906-95.628906 95.628906-52.816406 0-95.628906-42.816406-95.628906-95.628906 0-52.816406 42.8125-95.628906 95.628906-95.628906 52.8125 0 95.628906 42.8125 95.628906 95.628906zm0 0" fill="#64e8ff"/><path d="m95.628906 0c-6.625 0-13.089844.675781-19.335937 1.957031 43.546875 8.941407 76.296875 47.480469 76.296875 93.671875 0 46.1875-32.75 84.730469-76.296875 93.671875 6.246093 1.28125 12.710937 1.957031 19.335937 1.957031 52.8125 0 95.628906-42.816406 95.628906-95.628906 0-52.816406-42.816406-95.628906-95.628906-95.628906zm0 0" fill="#0fd9ff"/><path d="m511.808594 95.628906c0 52.8125-42.8125 95.628906-95.625 95.628906-52.816406 0-95.628906-42.816406-95.628906-95.628906 0-52.816406 42.8125-95.628906 95.628906-95.628906 52.8125 0 95.625 42.8125 95.625 95.628906zm0 0" fill="#6193ff"/><path d="m416.183594 0c-7.117188 0-14.050782.785156-20.722656 2.257812 42.847656 9.46875 74.902343 47.671876 74.902343 93.371094 0 45.695313-32.054687 83.898438-74.902343 93.367188 6.671874 1.476562 13.605468 2.261718 20.722656 2.261718 52.8125 0 95.625-42.816406 95.625-95.628906 0-52.816406-42.8125-95.628906-95.625-95.628906zm0 0" fill="#407bff"/><path d="m191.257812 416.371094c0 52.816406-42.816406 95.628906-95.628906 95.628906-52.816406 0-95.628906-42.8125-95.628906-95.628906 0-52.8125 42.8125-95.628906 95.628906-95.628906 52.8125 0 95.628906 42.816406 95.628906 95.628906zm0 0" fill="#ff6969"/><path d="m95.628906 320.742188c-7.1875 0-14.1875.800781-20.917968 2.304687 42.75 9.539063 74.707031 47.695313 74.707031 93.324219s-31.957031 83.785156-74.707031 93.328125c6.730468 1.5 13.730468 2.300781 20.917968 2.300781 52.8125 0 95.628906-42.8125 95.628906-95.628906 0-52.8125-42.816406-95.628906-95.628906-95.628906zm0 0" fill="#ff4848"/><path d="m511.808594 416.371094c0 52.816406-42.8125 95.628906-95.625 95.628906-52.816406 0-95.628906-42.8125-95.628906-95.628906 0-52.8125 42.8125-95.628906 95.628906-95.628906 52.8125 0 95.625 42.816406 95.625 95.628906zm0 0" fill="#ff95c2"/><path d="m416.183594 320.742188c-6.386719 0-12.625.632812-18.660156 1.828124 43.878906 8.679688 76.96875 47.375 76.96875 93.800782 0 46.429687-33.089844 85.125-76.96875 93.804687 6.035156 1.191407 12.273437 1.824219 18.660156 1.824219 52.8125 0 95.625-42.8125 95.625-95.628906 0-52.8125-42.8125-95.628906-95.625-95.628906zm0 0" fill="#ff758e"/><g fill="#fff"><path d="m137.296875 60.347656c-2.605469 1.304688-5.324219 2.386719-8.125 3.230469-7.605469-8.75-20.867187-9.671875-29.617187-2.066406-4.65625 4.054687-7.296876 9.949219-7.214844 16.125v4.683593c-15.035156.390626-29.355469-6.011718-39.078125-17.261718-1.460938-1.6875-4.203125-1.140625-4.835938 1.003906-3.441406 11.703125-8.148437 41.140625 25.171875 55.949219-6.625 4.496093-14.117187 7.453125-21.933594 8.714843-2.875.464844-3.246093 4.410157-.511718 5.417969 39.796875 14.691407 83.363281-9.109375 83.363281-58.648437-.003906-1.304688-.128906-2.609375-.375-3.890625 2.820313-2.78125 5.148437-5.988281 6.914063-9.492188 1.199218-2.390625-1.363282-4.960937-3.757813-3.765625zm0 0"/><path d="m409.441406 156.238281c-4.664062 0-8.445312-3.78125-8.445312-8.445312v-83.140625c0-16.339844 13.292968-29.632813 29.632812-29.632813h10c4.664063 0 8.445313 3.78125 8.445313 8.445313 0 4.664062-3.78125 8.441406-8.445313 8.441406h-10c-7.027344 0-12.746094 5.71875-12.746094 12.746094v83.140625c0 4.664062-3.777343 8.445312-8.441406 8.445312zm0 0"/><path d="m429.09375 102.4375h-38.332031c-4.664063 0-8.445313-3.78125-8.445313-8.441406 0-4.664063 3.78125-8.445313 8.445313-8.445313h38.332031c4.664062 0 8.445312 3.78125 8.445312 8.445313 0 4.660156-3.78125 8.441406-8.445312 8.441406zm0 0"/><path d="m392.625 415.324219v-30.375c0-2.238281 2.421875-3.632813 4.355469-2.515625l26.292969 15.1875 26.296874 15.191406c1.933594 1.117188 1.933594 3.914062 0 5.03125l-26.296874 15.1875-26.292969 15.1875c-1.933594 1.117188-4.355469-.28125-4.355469-2.515625zm0 0"/><path d="m125.910156 471.8125h-67.136718c-12.058594 0-21.871094-9.8125-21.871094-21.871094v-67.136718c0-12.0625 9.808594-21.871094 21.871094-21.871094h67.136718c12.058594 0 21.871094 9.808594 21.871094 21.871094v67.136718c0 12.058594-9.8125 21.871094-21.871094 21.871094zm-67.136718-93.992188c-2.75 0-4.984376 2.234376-4.984376 4.984376v67.136718c0 2.746094 2.234376 4.984375 4.984376 4.984375h67.136718c2.746094 0 4.984375-2.238281 4.984375-4.984375v-67.136718c0-2.75-2.238281-4.984376-4.984375-4.984376zm0 0"/><path d="m92.339844 440.445312c-13.273438 0-24.070313-10.800781-24.070313-24.074218 0-13.273438 10.796875-24.070313 24.070313-24.070313 13.273437 0 24.074218 10.796875 24.074218 24.070313 0 13.273437-10.800781 24.074218-24.074218 24.074218zm0-31.257812c-3.960938 0-7.183594 3.222656-7.183594 7.183594 0 3.964844 3.222656 7.183594 7.183594 7.183594 3.960937 0 7.183594-3.222657 7.183594-7.183594.003906-3.960938-3.21875-7.183594-7.183594-7.183594zm0 0"/></g><path d="m323.035156 203.359375c0 15.21875-12.332031 27.558594-27.558594 27.558594-5.023437 0-9.742187-1.351563-13.792968-3.703125-8.226563-4.765625-13.757813-13.667969-13.757813-23.855469 0-15.214844 12.332031-27.546875 27.550781-27.546875.839844 0 1.660157.035156 2.484376.117188 14.066406 1.25 25.074218 13.054687 25.074218 27.429687zm0 0" fill="#407bff"/><path d="m335.058594 315.027344-15.628906-2.628906-63.523438-10.679688c0-31.621094 17.714844-43.945312 39.570312-43.945312.703126 0 1.394532.027343 2.089844.082031 20.894532 1.570312 37.492188 26.566406 37.492188 57.171875zm0 0" fill="#82aaff"/><path d="m243.882812 203.359375c0 10.1875-5.53125 19.085937-13.757812 23.851563-4.050781 2.355468-8.769531 3.707031-13.792969 3.707031-15.226562 0-27.558593-12.34375-27.558593-27.558594 0-14.378906 11.007812-26.179687 25.078124-27.429687.820313-.082032 1.640626-.121094 2.480469-.121094 15.21875.003906 27.550781 12.335937 27.550781 27.550781zm0 0" fill="#407bff"/><path d="m255.90625 301.71875-63.523438 10.679688-15.628906 2.628906c0-30.605469 16.59375-55.601563 37.488282-57.171875.695312-.054688 1.390624-.082031 2.089843-.082031 21.855469 0 39.574219 12.324218 39.574219 43.945312zm0 0" fill="#82aaff"/><path d="m243.882812 203.359375c0 10.1875-5.53125 19.085937-13.757812 23.851563-11.390625-8.085938-18.820312-21.378907-18.820312-36.410157 0-5.214843.894531-10.226562 2.546874-14.871093.820313-.082032 1.640626-.121094 2.484376-.121094 15.214843.003906 27.546874 12.335937 27.546874 27.550781zm0 0" fill="#1864ea"/><path d="m300.507812 190.800781c0 15.035157-7.433593 28.324219-18.824218 36.414063-8.222656-4.765625-13.757813-13.667969-13.757813-23.855469 0-15.214844 12.335938-27.546875 27.550781-27.546875.839844 0 1.660157.035156 2.484376.117188 1.652343 4.644531 2.546874 9.65625 2.546874 14.871093zm0 0" fill="#1864ea"/><path d="m286.335938 190.800781c0 16.804688-13.625 30.429688-30.429688 30.429688-16.808594 0-30.433594-13.625-30.433594-30.429688 0-16.808593 13.625-30.433593 30.433594-30.433593 16.804688 0 30.429688 13.625 30.429688 30.433593zm0 0" fill="#82aaff"/><path d="m255.90625 301.71875-63.523438 10.679688c2.726563-21.734376 10.660157-40.847657 21.859376-54.542969.695312-.054688 1.390624-.082031 2.089843-.082031 21.855469 0 39.574219 12.324218 39.574219 43.945312zm0 0" fill="#6193ff"/><path d="m319.429688 312.398438-63.523438-10.679688c0-31.621094 17.714844-43.945312 39.570312-43.945312.703126 0 1.394532.027343 2.089844.082031 11.203125 13.695312 19.132813 32.808593 21.863282 54.542969zm0 0" fill="#6193ff"/><path d="m212.195312 314.125c0-34.921875 19.570313-63.230469 43.710938-63.230469s43.707031 28.308594 43.707031 63.230469" fill="#c5d9ff"/></svg>